<?xml version="1.0" standalone="no"?>
<!DOCTYPE svg PUBLIC "-//W3C//DTD SVG 20010904//EN"
 "http://www.w3.org/TR/2001/REC-SVG-20010904/DTD/svg10.dtd">
<svg version="1.0" xmlns="http://www.w3.org/2000/svg"
 width="1000.000000pt" height="1000.000000pt" viewBox="0 0 1000.000000 1000.000000"
 preserveAspectRatio="xMidYMid meet">
<metadata>
Created by potrace 1.15, written by Peter Selinger 2001-2017
</metadata>
<g transform="translate(0.000000,1000.000000) scale(0.100000,-0.100000)"
fill="#000000" stroke="none">
<path d="M5100 9309 c-351 -40 -655 -292 -763 -634 -104 -329 -11 -696 236
-932 153 -146 330 -229 540 -252 431 -48 839 218 970 634 104 329 11 696 -236
932 -153 146 -330 229 -540 252 -105 12 -100 12 -207 0z m259 -304 c164 -39
320 -161 399 -312 51 -99 72 -182 72 -293 0 -170 -62 -322 -180 -440 -118
-118 -270 -180 -440 -180 -111 0 -194 21 -293 72 -151 79 -273 235 -312 399
-19 82 -19 216 0 298 51 213 240 404 452 455 77 19 223 19 302 1z"/>
<path d="M9174 7892 c-16 -9 -73 -51 -125 -93 -367 -296 -909 -594 -1443 -794
-769 -287 -1578 -416 -2411 -384 -965 37 -1865 182 -2560 414 -557 186 -1025
439 -1271 690 -93 95 -126 115 -186 115 -124 -1 -206 -137 -149 -248 22 -42
174 -193 271 -268 604 -470 1616 -812 2849 -964 90 -11 167 -23 170 -26 12
-12 -8 -1137 -29 -1579 -23 -492 -48 -727 -87 -820 -14 -33 -54 -144 -89 -247
-215 -635 -503 -1147 -899 -1598 -523 -595 -1259 -1070 -2075 -1339 -120 -39
-154 -60 -180 -110 -58 -114 22 -250 148 -251 86 0 537 175 852 331 524 259
933 550 1320 939 517 520 887 1126 1150 1890 24 69 45 127 47 129 9 12 320 19
474 11 805 -45 1455 -308 1923 -776 509 -510 776 -1218 827 -2189 10 -182 14
-215 33 -250 60 -112 230 -112 293 0 27 47 29 127 13 365 -36 502 -127 934
-277 1315 -391 990 -1180 1619 -2283 1819 -230 42 -417 58 -668 60 l-233 1 5
40 c34 247 59 793 77 1665 6 311 11 566 12 567 1 1 49 -2 107 -7 141 -12 538
-30 660 -30 l98 0 -4 -37 c-14 -118 -123 -1587 -119 -1592 7 -6 328 -31 333
-26 3 3 132 1626 132 1663 0 7 14 12 35 12 60 0 333 30 505 56 1065 159 2111
599 2874 1208 97 78 126 121 126 188 -1 122 -142 208 -246 150z"/>
</g>
</svg>
